<?xml version="1.0" standalone="no"?>
<!DOCTYPE svg PUBLIC "-//W3C//DTD SVG 20010904//EN"
 "http://www.w3.org/TR/2001/REC-SVG-20010904/DTD/svg10.dtd">
<svg version="1.0" xmlns="http://www.w3.org/2000/svg"
 width="512.000000pt" height="512.000000pt" viewBox="0 0 512.000000 512.000000"
 preserveAspectRatio="xMidYMid meet">
<metadata>
Created by potrace 1.11, written by Peter Selinger 2001-2013
</metadata>
<g transform="translate(0.000000,512.000000) scale(0.100000,-0.100000)"
fill="#000000" stroke="none">
<path d="M845 4789 c-35 -20 -45 -41 -45 -96 l0 -53 241 0 241 0 -4 60 c-7 95
-6 95 -226 98 -125 1 -194 -2 -207 -9z"/>
<path d="M2476 4778 c-15 -14 -31 -45 -40 -80 l-14 -58 298 0 298 0 -14 58
c-9 35 -25 66 -40 80 -24 21 -31 22 -244 22 -213 0 -220 -1 -244 -22z"/>
<path d="M4042 4793 c-22 -9 -42 -60 -42 -108 l0 -45 240 0 240 0 0 43 c0 110
-15 117 -247 116 -98 0 -184 -3 -191 -6z"/>
<path d="M800 4400 l0 -80 240 0 240 0 0 80 0 80 -240 0 -240 0 0 -80z"/>
<path d="M2482 4420 c7 -95 5 -95 231 -98 233 -3 238 -1 245 97 l4 61 -242 0
-242 0 4 -60z"/>
<path d="M3920 4400 l0 -80 320 0 320 0 0 80 0 80 -320 0 -320 0 0 -80z"/>
<path d="M844 4103 c-29 -100 -42 -196 -39 -288 4 -97 7 -114 33 -220 l18 -70
181 -3 181 -2 11 32 c9 30 23 87 39 163 20 93 1 286 -39 413 l-11 32 -178 0
-179 0 -17 -57z"/>
<path d="M2549 4148 c0 -7 -2 -20 -4 -28 -1 -8 -6 -46 -9 -83 -4 -37 -9 -78
-12 -90 -2 -12 -6 -44 -9 -72 -3 -27 -8 -68 -11 -90 -3 -22 -7 -51 -9 -65 -2
-14 -7 -54 -10 -90 -4 -36 -8 -72 -10 -80 -1 -8 -6 -42 -9 -75 -4 -33 -9 -67
-11 -75 -2 -8 -6 -40 -10 -70 -3 -30 -7 -71 -10 -90 -2 -19 -7 -57 -10 -85 -4
-27 -10 -79 -15 -115 -6 -36 -10 -71 -10 -77 0 -7 -32 -45 -70 -84 -77 -77
-139 -189 -159 -284 -7 -33 -10 -418 -11 -1128 0 -993 1 -1081 17 -1107 9 -16
26 -31 37 -34 43 -12 994 -6 1020 5 13 7 30 24 36 38 7 19 10 344 7 1126 -2
1001 -4 1104 -19 1148 -32 90 -82 169 -150 238 -37 38 -68 75 -69 82 0 6 -2
19 -3 27 -2 8 -6 44 -10 80 -4 36 -9 74 -11 85 -2 11 -7 47 -11 80 -3 33 -8
71 -10 85 -2 14 -6 48 -9 75 -3 28 -7 67 -10 88 -3 20 -7 53 -10 73 -2 20 -7
53 -9 73 -3 20 -8 61 -12 91 -3 30 -7 64 -9 75 -1 11 -6 47 -10 80 -4 33 -9
69 -11 80 -2 10 -7 49 -10 85 -4 36 -8 74 -10 85 -1 11 -3 23 -3 28 -1 4 -77
7 -171 7 -129 0 -170 -3 -171 -12z m231 -1752 c0 2 23 -7 52 -22 151 -76 258
-292 284 -570 33 -370 -85 -717 -280 -816 -197 -101 -399 61 -481 386 -86 342
-15 754 163 933 72 72 168 110 235 92 15 -4 27 -6 27 -3z"/>
<path d="M2673 2219 c-69 -34 -136 -162 -170 -324 -26 -121 -22 -343 7 -460
64 -262 185 -372 293 -268 66 64 119 193 141 343 17 119 12 326 -10 402 -3 9
-6 25 -9 35 -17 87 -82 215 -130 255 -42 36 -75 40 -122 17z"/>
<path d="M4080 3920 l0 -240 160 0 160 0 0 240 0 240 -160 0 -160 0 0 -240z"/>
<path d="M4080 3364 c0 -85 -4 -164 -10 -174 -5 -10 -36 -34 -68 -54 -73 -44
-152 -127 -186 -194 -14 -28 -26 -54 -26 -57 0 -3 203 -5 450 -5 248 0 450 2
450 5 0 15 -47 95 -79 135 -47 58 -65 74 -129 111 -81 48 -82 50 -82 231 l0
158 -160 0 -160 0 0 -156z"/>
<path d="M676 3203 l-157 -158 260 -3 c144 -1 378 -1 522 0 l260 3 -158 158
-158 157 -205 0 -206 0 -158 -157z"/>
<path d="M400 2800 l0 -80 640 0 640 0 0 80 0 80 -640 0 -640 0 0 -80z"/>
<path d="M3760 1760 l0 -960 480 0 480 0 0 960 0 960 -480 0 -480 0 0 -960z"/>
<path d="M400 1680 l0 -880 640 0 640 0 0 880 0 880 -640 0 -640 0 0 -880z
m735 705 c87 -31 154 -89 195 -170 l25 -50 0 -485 0 -485 -24 -49 c-32 -63
-95 -126 -157 -156 -72 -35 -199 -35 -269 0 -62 31 -123 92 -155 156 l-25 49
0 480 c0 393 3 486 14 515 55 135 175 214 311 206 36 -2 74 -7 85 -11z"/>
<path d="M974 2226 c-17 -8 -44 -31 -60 -52 l-29 -37 -2 -452 -3 -452 31 -42
c55 -76 152 -91 226 -35 64 49 64 47 61 539 -3 430 -4 444 -24 471 -11 15 -31
36 -45 46 -33 25 -115 32 -155 14z"/>
<path d="M400 515 c0 -137 11 -178 52 -189 13 -3 279 -6 591 -6 600 0 614 1
631 45 3 9 6 75 6 146 l0 129 -640 0 -640 0 0 -125z"/>
<path d="M3762 500 c2 -118 6 -142 21 -157 16 -17 50 -18 435 -21 229 -1 427
0 440 3 12 3 31 14 42 25 18 18 20 34 20 155 l0 135 -481 0 -481 0 4 -140z"/>
</g>
</svg>
